<svg width="50" height="50" viewBox="0 0 50 50" fill="none" xmlns="http://www.w3.org/2000/svg">
<path fill-rule="evenodd" clip-rule="evenodd" d="M50 25C50 25.947 49.6708 26.8553 49.0848 27.5249C48.4988 28.1946 47.7041 28.5708 46.8753 28.5708H10.6731L24.0904 43.8966C24.3809 44.2286 24.6114 44.6227 24.7686 45.0565C24.9258 45.4903 25.0067 45.9552 25.0067 46.4247C25.0067 46.8942 24.9258 47.3591 24.7686 47.7929C24.6114 48.2267 24.3809 48.6208 24.0904 48.9528C23.7999 49.2848 23.455 49.5482 23.0754 49.7279C22.6958 49.9075 22.289 50 21.8781 50C21.4673 50 21.0605 49.9075 20.6809 49.7279C20.3013 49.5482 19.9564 49.2848 19.6659 48.9528L0.917983 27.5281C0.626996 27.1964 0.396128 26.8024 0.238605 26.3686C0.0810823 25.9347 0 25.4697 0 25C0 24.5303 0.0810823 24.0653 0.238605 23.6314C0.396128 23.1976 0.626996 22.8036 0.917983 22.4719L19.6659 1.04718C20.2526 0.376683 21.0484 0 21.8781 0C22.7079 0 23.5037 0.376683 24.0904 1.04718C24.6771 1.71768 25.0067 2.62707 25.0067 3.5753C25.0067 4.52352 24.6771 5.43291 24.0904 6.10341L10.6731 21.4292H46.8753C47.7041 21.4292 48.4988 21.8054 49.0848 22.4751C49.6708 23.1447 50 24.053 50 25Z" fill="black"/>
</svg>
