<svg width="308" height="70" viewBox="0 0 308 70" fill="none" xmlns="http://www.w3.org/2000/svg">
<path d="M60.48 31.1111C60.48 27.3817 57.9096 24.2628 54.5038 23.5122C55.8646 21.175 56.7 18.4722 56.7 15.5556C56.7 6.97667 49.9187 0 41.58 0C35.8495 0 30.9128 3.33278 28.35 8.18222C25.7872 3.33278 20.8505 0 15.12 0C6.78132 0 0 6.97667 0 15.5556C0 19.0633 1.17936 22.2678 3.08826 24.8733C2.13392 25.5909 1.3571 26.5295 0.820611 27.6131C0.284117 28.6967 0.00300368 29.895 0 31.1111V62.2222C0 66.5117 3.39066 70 7.56 70H52.92C57.0893 70 60.48 66.5117 60.48 62.2222V51.9672L75.6 59.745V32.5228L60.48 40.3006V31.1111ZM41.58 7.77778C45.7493 7.77778 49.14 11.2661 49.14 15.5556C49.14 19.845 45.7493 23.3333 41.58 23.3333C37.4107 23.3333 34.02 19.845 34.02 15.5556C34.02 11.2661 37.4107 7.77778 41.58 7.77778ZM15.12 7.77778C19.2893 7.77778 22.68 11.2661 22.68 15.5556C22.68 19.845 19.2893 23.3333 15.12 23.3333C10.9507 23.3333 7.56 19.845 7.56 15.5556C7.56 11.2661 10.9507 7.77778 15.12 7.77778Z" fill="#FFFFFE"/>
<path d="M38.8266 31.7554C36.1814 32.623 23.8534 36.3658 18.1058 38.2882C17.0281 38.6487 15.9015 40.5339 17.7629 42.4733L33.4872 56.7129C35.3487 58.4992 38.7287 62.0719 39.7574 57.2233L43.0884 34.6135C43.2843 32.521 42.1087 30.4794 38.8266 31.7554Z" fill="#0DD98E"/>
<path fill-rule="evenodd" clip-rule="evenodd" d="M42.1842 32.0085C41.5259 31.4153 40.4369 31.2202 38.8108 31.8524L38.8096 31.8529L38.8084 31.8533C37.8377 32.1717 35.5642 32.877 32.7925 33.7368C28.0263 35.2153 21.7868 37.1509 18.1646 38.3626C17.6444 38.5366 17.1072 39.0819 16.9281 39.8217C16.7501 40.5571 16.9251 41.4916 17.8414 42.447L33.5067 56.6348L33.5072 56.6353C33.5983 56.7227 33.6929 56.8143 33.7907 56.909C34.1914 57.2969 34.6443 57.7353 35.1195 58.1431C35.7109 58.6508 36.3331 59.1077 36.927 59.359C37.5208 59.6102 38.0775 59.6526 38.5475 59.3471C39.0194 59.0402 39.4178 58.3738 39.673 57.1718L42.9912 34.6464C43.0876 33.6134 42.8446 32.6037 42.1842 32.0085ZM42.248 31.9316C42.9417 32.5567 43.1867 33.606 43.0882 34.6576L43.0881 34.659L43.0879 34.6604L39.769 57.1906L39.7687 57.1922C39.5114 58.4048 39.1046 59.1047 38.5992 59.4333C38.0915 59.7634 37.4983 59.7105 36.8903 59.4532C36.2824 59.196 35.651 58.7311 35.0574 58.2217C34.5797 57.8116 34.1241 57.3706 33.7233 56.9825C33.626 56.8883 33.5319 56.7973 33.4416 56.7106C33.4414 56.7104 33.4412 56.7102 33.441 56.7101L17.7748 42.5215L17.7735 42.5202C16.8363 41.5436 16.6455 40.5731 16.8335 39.7968C17.0204 39.0244 17.5813 38.4509 18.1348 38.2657C21.7559 37.0545 28.0044 35.116 32.773 33.6367C35.5412 32.778 37.8106 32.0739 38.7779 31.7567C40.421 31.1181 41.5522 31.3045 42.248 31.9316Z" fill="#0DD98E"/>
<path d="M31.5634 40.9108C29.3325 41.6473 18.9354 44.8243 14.088 46.4561C13.1791 46.7621 12.2289 48.3623 13.7988 50.0086L27.0603 62.0956C28.6302 63.6119 31.4808 66.6445 32.3484 62.5289L35.1577 43.3368C35.3229 41.5606 34.3314 39.8277 31.5634 40.9108Z" fill="#18BA65"/>
<path fill-rule="evenodd" clip-rule="evenodd" d="M34.3834 41.1389C33.8314 40.6382 32.9169 40.4721 31.5477 41.0079L31.5465 41.0084L31.5453 41.0088C30.7268 41.279 28.8105 41.8773 26.4743 42.6068C22.4575 43.8609 17.1994 45.5026 14.1465 46.5305C13.7105 46.6773 13.2595 47.1378 13.1092 47.7627C12.9599 48.3835 13.1062 49.1734 13.8768 49.9822L27.0796 62.0174L27.0801 62.0179C27.157 62.0921 27.2368 62.1699 27.3192 62.2502C27.6569 62.5792 28.0384 62.9509 28.4387 63.2968C28.937 63.7272 29.4607 64.1142 29.9602 64.3269C30.4596 64.5396 30.9261 64.5748 31.3193 64.3174C31.7145 64.0588 32.0496 63.4961 32.2645 62.4774L35.0611 43.3697C35.1422 42.4949 34.9375 41.6415 34.3834 41.1389ZM34.4469 41.0619C35.034 41.5944 35.2406 42.4875 35.1575 43.381L35.1574 43.3824L32.3599 62.4961L32.3596 62.4977C32.1426 63.5271 31.7992 64.1233 31.3707 64.4038C30.94 64.6857 30.4372 64.64 29.9237 64.4213C29.4104 64.2026 28.8775 63.8077 28.377 63.3753C27.9742 63.0274 27.59 62.653 27.2522 62.3239C27.1703 62.244 27.091 62.1668 27.0149 62.0933C27.0148 62.0931 27.0146 62.093 27.0144 62.0928L13.8106 50.0567L13.8094 50.0555C13.018 49.2254 12.856 48.3995 13.0152 47.7378C13.1733 47.0801 13.6478 46.5915 14.1168 46.4336C17.1686 45.4061 22.4357 43.7615 26.4549 42.5066C28.7876 41.7782 30.7 41.1811 31.515 40.912C32.901 40.3699 33.8576 40.5274 34.4469 41.0619Z" fill="#0DD98E"/>
<path d="M106.25 19.9714C101.259 19.9714 98.159 22.495 98.159 27.8182V28.8039H94V34.7186H98.159V49.939H105.191V34.7186H110.031V28.8039H105.191V28.3308C105.191 26.7535 106.174 25.8072 108.14 25.8072C108.972 25.8072 109.842 25.9255 110.636 26.1621V20.6023C109.577 20.208 107.725 19.9714 106.25 19.9714Z" fill="#FFFFFE"/>
<path d="M113.01 49.939H120.042V20.3657H113.01V49.939Z" fill="#FFFFFE"/>
<path d="M137.663 43.0386C137.133 44.0638 135.81 44.6947 134.147 44.6947C131.689 44.6947 129.988 43.3146 129.95 40.9881H144.09C144.242 40.2784 144.355 39.5292 144.355 38.5829C144.355 32.5105 140.158 28.4096 133.882 28.4096C127.379 28.4096 123.031 32.7865 123.031 39.3715C123.031 45.9959 127.454 50.3333 134.222 50.3333C139.629 50.3333 143.712 47.5337 144.544 43.0386H137.663ZM133.693 33.93C135.659 33.93 137.058 34.9158 137.209 36.4536H130.063C130.479 34.8763 131.916 33.93 133.693 33.93Z" fill="#FFFFFE"/>
<path d="M161.404 43.0386C160.875 44.0638 159.551 44.6947 157.888 44.6947C155.43 44.6947 153.729 43.3146 153.691 40.9881H167.831C167.983 40.2784 168.096 39.5292 168.096 38.5829C168.096 32.5105 163.899 28.4096 157.623 28.4096C151.12 28.4096 146.772 32.7865 146.772 39.3715C146.772 45.9959 151.196 50.3333 157.963 50.3333C163.37 50.3333 167.453 47.5337 168.285 43.0386H161.404ZM157.434 33.93C159.4 33.93 160.799 34.9158 160.95 36.4536H153.804C154.22 34.8763 155.657 33.93 157.434 33.93Z" fill="#FFFFFE"/>
<path d="M174.644 49.939H181.677V34.7186H186.781V28.8039H181.677V23.4808L174.644 23.8356V28.8039H169.691V34.7186H174.644V49.939Z" fill="#FFFFFE"/>
<path d="M224.982 49.939L222.033 21.3515H212.089L206.947 41.2247L202.07 21.3515H191.521L188.647 49.939H196.058L197.722 30.2235L202.901 49.939H210.652L215.643 30.9332L217.42 49.939H224.982Z" fill="#FFFFFE"/>
<path d="M227.263 39.3715C227.263 45.8776 231.725 50.2939 238.681 50.2939C245.638 50.2939 250.062 45.8776 250.062 39.3715C250.062 32.7865 245.638 28.4096 238.681 28.4096C231.725 28.4096 227.263 32.7865 227.263 39.3715ZM234.371 39.4109C234.371 36.4536 235.921 34.5609 238.795 34.5609C241.29 34.5609 242.954 36.1776 242.954 39.332C242.954 42.2105 241.479 44.1426 238.681 44.1426C236.11 44.1426 234.371 42.4865 234.371 39.4109Z" fill="#FFFFFE"/>
<path d="M267.232 28.8039L262.052 40.8304L256.986 28.8039H249.689L259.67 49.939H264.472L274.454 28.8039H267.232Z" fill="#FFFFFE"/>
<path d="M279.945 27.069C282.969 27.069 284.406 25.2946 284.406 23.0864C284.406 20.9572 282.969 19.2222 279.945 19.2222C276.92 19.2222 275.521 20.9572 275.521 23.0864C275.521 25.2946 276.92 27.069 279.945 27.069ZM276.466 49.939H283.499V28.8039H276.466V49.939Z" fill="#FFFFFE"/>
<path d="M301.119 43.0386C300.59 44.0638 299.266 44.6947 297.603 44.6947C295.145 44.6947 293.444 43.3146 293.406 40.9881H307.546C307.698 40.2784 307.811 39.5292 307.811 38.5829C307.811 32.5105 303.614 28.4096 297.338 28.4096C290.835 28.4096 286.487 32.7865 286.487 39.3715C286.487 45.9959 290.91 50.3333 297.678 50.3333C303.085 50.3333 307.168 47.5337 308 43.0386H301.119ZM297.149 33.93C299.115 33.93 300.514 34.9158 300.665 36.4536H293.519C293.935 34.8763 295.372 33.93 297.149 33.93Z" fill="#FFFFFE"/>
</svg>
