<svg width="88" height="82" viewBox="0 0 88 82" fill="none" xmlns="http://www.w3.org/2000/svg">
<path d="M70.4 36.4444C70.4 32.0757 67.408 28.4221 63.4436 27.5429C65.0276 24.805 66 21.6389 66 18.2222C66 8.17267 58.1064 0 48.4 0C41.7296 0 35.9832 3.90411 33 9.58489C30.0168 3.90411 24.2704 0 17.6 0C7.8936 0 0 8.17267 0 18.2222C0 22.3313 1.3728 26.0851 3.5948 29.1373C2.48393 29.9779 1.5797 31.0774 0.955208 32.3468C0.330718 33.6161 0.00349635 35.0199 0 36.4444V72.8889C0 77.9137 3.9468 82 8.8 82H61.6C66.4532 82 70.4 77.9137 70.4 72.8889V60.8759L88 69.987V38.0981L70.4 47.2092V36.4444ZM48.4 9.11111C53.2532 9.11111 57.2 13.1974 57.2 18.2222C57.2 23.247 53.2532 27.3333 48.4 27.3333C43.5468 27.3333 39.6 23.247 39.6 18.2222C39.6 13.1974 43.5468 9.11111 48.4 9.11111ZM17.6 9.11111C22.4532 9.11111 26.4 13.1974 26.4 18.2222C26.4 23.247 22.4532 27.3333 17.6 27.3333C12.7468 27.3333 8.8 23.247 8.8 18.2222C8.8 13.1974 12.7468 9.11111 17.6 9.11111Z" fill="#7A7A7A"/>
<path d="M45.195 37.1992C42.116 38.2156 27.7659 42.6 21.0756 44.852C19.8211 45.2742 18.5096 47.4826 20.6764 49.7545L38.9799 66.4352C41.1466 68.5277 45.081 72.7128 46.2784 67.033L50.1558 40.5473C50.3839 38.096 49.0154 35.7045 45.195 37.1992Z" fill="#5A5A5A"/>
<path d="M36.7405 47.924C34.1436 48.7868 22.0412 52.5084 16.3987 54.42C15.3408 54.7784 14.2347 56.653 16.0621 58.5814L31.4987 72.7406C33.3261 74.5168 36.6443 78.0693 37.6542 73.2481L40.9242 50.766C41.1166 48.6853 39.9624 46.6553 36.7405 47.924Z" fill="#444444"/>
</svg>
